<mxfile>
    <diagram id="S13HtHxYeh_Jurc0GLFv" name="Page-1">
        <mxGraphModel dx="784" dy="563" grid="1" gridSize="10" guides="1" tooltips="1" connect="1" arrows="1" fold="1" page="1" pageScale="1" pageWidth="850" pageHeight="1100" math="0" shadow="0">
            <root>
                <mxCell id="0"/>
                <mxCell id="1" parent="0"/>
                <mxCell id="2" value="1" style="ellipse;whiteSpace=wrap;aspect=fixed;sketch=1;fillColor=#008a00;strokeColor=#005700;fontSize=19;fontColor=#000000;" parent="1" vertex="1">
                    <mxGeometry x="40" width="40" height="40" as="geometry"/>
                </mxCell>
                <mxCell id="4" value="2" style="ellipse;whiteSpace=wrap;aspect=fixed;sketch=1;fillColor=#008a00;strokeColor=#005700;fontSize=19;fontColor=#000000;" vertex="1" parent="1">
                    <mxGeometry y="80" width="40" height="40" as="geometry"/>
                </mxCell>
                <mxCell id="5" value="3" style="ellipse;whiteSpace=wrap;aspect=fixed;sketch=1;fillColor=#008a00;strokeColor=#005700;fontSize=19;fontColor=#000000;" vertex="1" parent="1">
                    <mxGeometry x="80" y="80" width="40" height="40" as="geometry"/>
                </mxCell>
                <mxCell id="6" value="" style="endArrow=none;html=1;fontSize=19;entryX=0.297;entryY=0.972;entryDx=0;entryDy=0;exitX=1;exitY=0;exitDx=0;exitDy=0;sketch=1;entryPerimeter=0;fontColor=#000000;" edge="1" parent="1" source="4" target="2">
                    <mxGeometry width="50" height="50" relative="1" as="geometry">
                        <mxPoint x="130" y="250" as="sourcePoint"/>
                        <mxPoint x="180" y="200" as="targetPoint"/>
                    </mxGeometry>
                </mxCell>
                <mxCell id="7" value="" style="endArrow=none;html=1;fontSize=19;exitX=0.443;exitY=0.018;exitDx=0;exitDy=0;sketch=1;exitPerimeter=0;fontColor=#000000;" edge="1" parent="1" source="5" target="2">
                    <mxGeometry width="50" height="50" relative="1" as="geometry">
                        <mxPoint x="44.14213562373095" y="95.85786437626899" as="sourcePoint"/>
                        <mxPoint x="70" y="50" as="targetPoint"/>
                    </mxGeometry>
                </mxCell>
                <mxCell id="8" value="" style="endArrow=none;html=1;fontSize=19;entryX=0;entryY=0.5;entryDx=0;entryDy=0;exitX=1;exitY=0.5;exitDx=0;exitDy=0;sketch=1;fontColor=#000000;" edge="1" parent="1" source="4" target="5">
                    <mxGeometry width="50" height="50" relative="1" as="geometry">
                        <mxPoint x="44.14213562373095" y="95.85786437626899" as="sourcePoint"/>
                        <mxPoint x="61.879999999999995" y="48.88000000000005" as="targetPoint"/>
                    </mxGeometry>
                </mxCell>
                <mxCell id="9" value="1" style="ellipse;whiteSpace=wrap;aspect=fixed;sketch=1;fillColor=#008a00;strokeColor=#005700;fontSize=19;fontColor=#000000;" vertex="1" parent="1">
                    <mxGeometry x="200" width="40" height="40" as="geometry"/>
                </mxCell>
                <mxCell id="10" value="2" style="ellipse;whiteSpace=wrap;aspect=fixed;sketch=1;fillColor=#008a00;strokeColor=#005700;fontSize=19;fontColor=#000000;" vertex="1" parent="1">
                    <mxGeometry x="160" y="80" width="40" height="40" as="geometry"/>
                </mxCell>
                <mxCell id="11" value="3" style="ellipse;whiteSpace=wrap;aspect=fixed;sketch=1;fillColor=#008a00;strokeColor=#005700;fontSize=19;fontColor=#000000;" vertex="1" parent="1">
                    <mxGeometry x="240" y="80" width="40" height="40" as="geometry"/>
                </mxCell>
                <mxCell id="12" value="" style="endArrow=none;html=1;fontSize=19;entryX=0.297;entryY=0.972;entryDx=0;entryDy=0;exitX=1;exitY=0;exitDx=0;exitDy=0;sketch=1;entryPerimeter=0;startArrow=classic;startFill=1;fontColor=#000000;" edge="1" parent="1" source="10" target="9">
                    <mxGeometry width="50" height="50" relative="1" as="geometry">
                        <mxPoint x="290" y="250" as="sourcePoint"/>
                        <mxPoint x="340" y="200" as="targetPoint"/>
                    </mxGeometry>
                </mxCell>
                <mxCell id="13" value="" style="endArrow=classic;html=1;fontSize=19;exitX=0.443;exitY=0.018;exitDx=0;exitDy=0;sketch=1;exitPerimeter=0;startArrow=none;startFill=0;endFill=1;fontColor=#000000;" edge="1" parent="1" source="11" target="9">
                    <mxGeometry width="50" height="50" relative="1" as="geometry">
                        <mxPoint x="204.14213562373095" y="95.85786437626899" as="sourcePoint"/>
                        <mxPoint x="230" y="50" as="targetPoint"/>
                    </mxGeometry>
                </mxCell>
                <mxCell id="14" value="" style="endArrow=classic;html=1;fontSize=19;entryX=0;entryY=0.5;entryDx=0;entryDy=0;exitX=1;exitY=0.5;exitDx=0;exitDy=0;sketch=1;startArrow=none;startFill=0;endFill=1;fontColor=#000000;" edge="1" parent="1" source="10" target="11">
                    <mxGeometry width="50" height="50" relative="1" as="geometry">
                        <mxPoint x="204.14213562373095" y="95.85786437626899" as="sourcePoint"/>
                        <mxPoint x="221.88" y="48.88000000000005" as="targetPoint"/>
                    </mxGeometry>
                </mxCell>
                <mxCell id="15" value="无向图" style="text;html=1;strokeColor=none;fillColor=none;align=center;verticalAlign=middle;whiteSpace=wrap;rounded=0;fontSize=12;fontColor=#000000;" vertex="1" parent="1">
                    <mxGeometry x="25" y="130" width="70" height="20" as="geometry"/>
                </mxCell>
                <mxCell id="16" value="有向图" style="text;html=1;strokeColor=none;fillColor=none;align=center;verticalAlign=middle;whiteSpace=wrap;rounded=0;fontSize=12;fontColor=#000000;" vertex="1" parent="1">
                    <mxGeometry x="185" y="130" width="70" height="20" as="geometry"/>
                </mxCell>
            </root>
        </mxGraphModel>
    </diagram>
</mxfile>